<?xml version="1.0" encoding="utf-8"?>
<!-- Generator: Adobe Illustrator 27.1.1, SVG Export Plug-In . SVG Version: 6.00 Build 0)  -->
<svg version="1.1" xmlns="http://www.w3.org/2000/svg" xmlns:xlink="http://www.w3.org/1999/xlink" x="0px" y="0px"
	 viewBox="0 0 512 512" style="enable-background:new 0 0 512 512;" xml:space="preserve">
<style type="text/css">
	.st0{fill:#FFFFFF;}
</style>
<g id="circle">
</g>
<g id="logos">
	<g id="Instagram">
		<g>
			
				<ellipse transform="matrix(0.7071 -0.7071 0.7071 0.7071 -960.4114 -1806.6382)" class="st0" cx="-2661" cy="256" rx="58.3" ry="58.3"/>
		</g>
		<g>
			<path class="st0" d="M-2524.6,152.8c-6.2-15.4-18-27.2-33.3-33.3c-23-9.1-77.7-7-103.2-7s-80.1-2.1-103.2,7
				c-15.4,6.2-27.2,18-33.3,33.3c-9.1,23-7,77.7-7,103.2s-2.1,80.1,7,103.2c6.2,15.4,18,27.2,33.3,33.3c23,9.1,77.7,7,103.2,7
				s80.1,2.1,103.2-7c15.4-6.2,27.2-18,33.3-33.3c9.1-23,7-77.7,7-103.2S-2515.4,175.9-2524.6,152.8z M-2661,345.7
				c-49.7,0-89.7-40.1-89.7-89.7c0-49.7,40.1-89.7,89.7-89.7s89.7,40.1,89.7,89.7S-2611.3,345.7-2661,345.7z M-2568.6,183.5
				c-11.6,0-20.9-9.4-20.9-20.9c0-11.6,9.4-20.9,20.9-20.9s20.9,9.4,20.9,20.9C-2547.7,174.2-2557,183.5-2568.6,183.5z"/>
		</g>
		<g>
			<path class="st0" d="M-2661.1,0c-141.4,0-256,114.6-256,256s114.6,256,256,256c141.4,0,256-114.6,256-256S-2519.7,0-2661.1,0z
				 M-2487.2,328.2c-1.4,28-7.8,52.9-28.3,73.3c-20.5,20.5-45.3,26.9-73.3,28.3c-28.9,1.6-115.5,1.6-144.4,0
				c-28-1.4-52.8-7.8-73.3-28.3c-20.5-20.5-26.9-45.3-28.3-73.3c-1.6-28.9-1.6-115.5,0-144.4c1.4-28,7.7-52.9,28.3-73.3
				c20.5-20.5,45.4-26.9,73.3-28.2c28.9-1.6,115.5-1.6,144.4,0c28,1.4,52.9,7.8,73.3,28.3c20.5,20.5,26.9,45.3,28.3,73.3
				C-2485.6,212.7-2485.6,299.3-2487.2,328.2z"/>
		</g>
	</g>
	<g>
		<path class="st0" d="M2851.8-8.7c-141.4,0-256,114.6-256,256s114.6,256,256,256c141.4,0,256-114.6,256-256S2993.2-8.7,2851.8-8.7z
			 M2990.8,176c0.2,3.1,0.2,6.2,0.2,9.3c0,94.8-72.2,204.1-204.1,204.1c-40.6,0-78.4-11.8-110.2-32.2c5.8,0.7,11.3,0.9,17.3,0.9
			c33.5,0,64.4-11.3,89.1-30.6c-31.5-0.7-58-21.3-67.1-49.7c4.4,0.7,8.9,1.1,13.5,1.1c6.4,0,12.9-0.9,18.9-2.4
			c-32.9-6.7-57.5-35.5-57.5-70.4v-0.9c9.5,5.3,20.7,8.7,32.4,9.1c-19.3-12.9-32-34.9-32-59.7c0-13.3,3.6-25.5,9.8-36.2
			c35.3,43.5,88.4,72,147.9,75.1c-1.1-5.3-1.8-10.9-1.8-16.4c0-39.5,32-71.7,71.7-71.7c20.7,0,39.3,8.7,52.4,22.7
			c16.2-3.1,31.8-9.1,45.5-17.3c-5.3,16.7-16.7,30.6-31.5,39.5c14.4-1.6,28.4-5.6,41.3-11.1C3017,153.1,3004.8,165.8,2990.8,176z"/>
	</g>
	<g>
		<g>
			<polygon class="st0" points="938.5,1189.5 1030,1137.4 938.5,1085.4 			"/>
		</g>
		<g>
			<path class="st0" d="M974.3,881.2c-141.4,0-256,114.6-256,256s114.6,256,256,256s256-114.6,256-256S1115.7,881.2,974.3,881.2z
				 M1142,1222.2c-4,15.2-15.9,26.6-30.9,30.6c-27.3,7.4-136.7,7.4-136.7,7.4s-109.4,0-136.7-7.4c-15.1-4.1-26.9-15.5-30.9-30.6
				c-7.3-27.5-7.3-84.8-7.3-84.8s0-57.3,7.3-84.8c4-15.2,15.9-27.1,30.9-31.1c27.3-7.4,136.7-7.4,136.7-7.4s109.4,0,136.7,7.4
				c15.1,4.1,26.9,16,30.9,31.1c7.3,27.5,7.3,84.8,7.3,84.8S1149.3,1194.7,1142,1222.2z"/>
		</g>
	</g>
	<g>
		<path class="st0" d="M-2058.5,0c-141.4,0-256,114.6-256,256s114.6,256,256,256c141.4,0,256-114.6,256-256S-1917.1,0-2058.5,0z
			 M-1905.4,224.5c-30.1,0.1-59.5-9.3-83.9-26.8v122.2c0,61.4-49.8,111.1-111.2,111.1c-61.4,0-111.1-49.8-111.1-111.2
			s49.8-111.1,111.2-111.1c5.1,0,10.2,0.4,15.2,1.1v61.5c-26.9-8.5-55.5,6.5-64,33.4c-8.5,26.9,6.5,55.5,33.4,64
			c26.9,8.5,55.5-6.5,64-33.4c1.6-5,2.4-10.1,2.4-15.3V81h60.2c0,5.1,0.4,10.2,1.3,15.2c4.2,22.6,17.6,42.4,36.9,54.9
			c13.6,9,29.5,13.8,45.8,13.8V224.5z"/>
	</g>
	<path class="st0" d="M256,0C114.6,0,0,115.3,0,257.6C0,386.1,93.6,492.7,216,512V332h-65v-74.5h65v-56.7
		c0-64.6,38.2-100.2,96.7-100.2c28,0,57.3,5,57.3,5V169h-32.3c-31.8,0-41.7,19.9-41.7,40.2v48.3h71L355.6,332H296v180
		c122.4-19.3,216-125.9,216-254.4C512,115.3,397.4,0,256,0z"/>
	<path class="st0" d="M3496-8.7c-141.4,0-256,114.6-256,256s114.6,256,256,256c141.4,0,256-114.6,256-256S3637.4-8.7,3496-8.7z
		 M3416.1,390.6c0,3.3-0.9,4.6-4.1,4.6c-17.9-0.1-35.9-0.1-53.8,0c-3.5,0-4.2-1.5-4.2-4.9c0.1-33.3,0.1-66.7,0.1-100
		c0-33.2,0.1-66.4-0.1-99.6c0-3.8,0.8-5.2,4.7-5.1c17.7,0.2,35.4,0.2,53,0c3.3,0,4.5,0.9,4.5,4.5
		C3416.1,257,3416.1,323.8,3416.1,390.6z M3385,157.7c-19.8,0-35.6-16.7-35.6-37.7c0-21.3,15.7-38.1,35.7-38.1
		c19.8,0,35.7,17,35.6,38.2C3420.7,141,3404.8,157.7,3385,157.7z M3644.6,390c0,4.3-1.3,5.3-5.1,5.2c-17.3-0.2-34.6-0.2-51.9,0
		c-3.9,0-5.1-1.3-5.1-5.4c0.1-34.3,0.2-68.6,0-102.9c-0.1-8.6-0.8-17.4-2.6-25.8c-3.2-15.1-12.4-22.4-27-22.6
		c-4.4-0.1-9,0.2-13.3,1.3c-14.2,3.8-20.3,15.1-22.7,29.2c-1.1,6.8-1.6,13.8-1.6,20.7c-0.2,33.3-0.1,66.7-0.1,100
		c0,5.3,0,5.4-5.2,5.4c-17.3,0-34.6-0.1-51.9,0.1c-3.8,0-5-1.1-5-5.3c0.1-66.3,0.1-132.6,0.1-198.9c0-5.3,0-5.3,5.1-5.3
		c16.7,0,33.3,0.1,50-0.1c3.5,0,4.7,1,4.6,4.8c-0.2,7.5-0.1,15-0.1,22.4c6.7-10.1,14.7-18.3,24.9-24.1c11.9-6.8,24.6-9.7,38.1-8
		c8,1,16.1,1.6,23.8,3.8c22.3,6.6,35,23.6,40,46.7c2.8,12.9,4.5,26.3,4.7,39.5C3644.9,310.5,3644.5,350.2,3644.6,390z"/>
</g>
</svg>
