<?xml version="1.0" encoding="utf-8"?>
<!-- Generator: Adobe Illustrator 27.1.1, SVG Export Plug-In . SVG Version: 6.00 Build 0)  -->
<svg version="1.1" id="Layer_1" xmlns="http://www.w3.org/2000/svg" xmlns:xlink="http://www.w3.org/1999/xlink" x="0px" y="0px"
	 viewBox="0 0 32 32" style="enable-background:new 0 0 32 32;" xml:space="preserve">
<style type="text/css">
	.st0{clip-path:url(#SVGID_00000163063790607179351930000016500377940728839590_);}
	.st1{fill:#2A282A;}
	.st2{fill:#29282A;}
</style>
<g id="Component_510" transform="translate(868 702)">
	<g>
		<g>
			<defs>
				<polyline id="SVGID_1_" points="-1328,-2530 -1328,-2498 -1360,-2498 -1360,-2530 				"/>
			</defs>
			<clipPath id="SVGID_00000090285706383892448460000004430801659814063763_">
				<use xlink:href="#SVGID_1_"  style="overflow:visible;"/>
			</clipPath>
			
				<g id="Mask_Group_9" transform="translate(-492 -1828)" style="clip-path:url(#SVGID_00000090285706383892448460000004430801659814063763_);">
				<path id="mail" class="st1" d="M-376,1129v26h32v-26H-376z M-347.3,1131l-12.7,12.7l-12.6-12.7H-347.3z M-374,1132.4l9.4,9.5
					l-9.4,9.5V1132.4z M-372.7,1153l9.5-9.6l3.1,3.2l3.1-3.1l9.5,9.6L-372.7,1153L-372.7,1153z M-346,1151.6l-9.5-9.6l9.5-9.5
					V1151.6z"/>
			</g>
		</g>
	</g>
</g>
<g id="Component_510_00000139284383482381103560000004385866547393980843_" transform="translate(868 702)">
	<g>
		<g id="Mask_Group_9_00000147899427886681394040000005701012975981712831_" transform="translate(-492 -1828)">
			<path id="mail_00000104695134732874303180000009593790800860806821_" class="st2" d="M-376,1129v26h32v-26H-376z M-347.3,1131
				l-12.7,12.7l-12.6-12.7H-347.3z M-374,1132.4l9.4,9.5l-9.4,9.5V1132.4z M-372.7,1153l9.5-9.6l3.1,3.2l3.1-3.1l9.5,9.6H-372.7z
				 M-346,1151.6l-9.5-9.6l9.5-9.5V1151.6z"/>
		</g>
	</g>
</g>
</svg>
