<?xml version="1.0" encoding="utf-8"?>
<!-- Generator: Adobe Illustrator 27.1.1, SVG Export Plug-In . SVG Version: 6.00 Build 0)  -->
<svg version="1.1" id="Layer_1" xmlns="http://www.w3.org/2000/svg" xmlns:xlink="http://www.w3.org/1999/xlink" x="0px" y="0px"
	 viewBox="0 0 32 32" style="enable-background:new 0 0 32 32;" xml:space="preserve">
<style type="text/css">
	.st0{fill:#2A282A;}
</style>
<g id="ico-mobile" transform="translate(873.647 742)">
	<path id="Subtraction_1" class="st0" d="M-851.5-710h-12.7c-2.2,0-4-1.8-4-4v-24c0-2.2,1.8-4,4-4h12.7c2.2,0,4,1.8,4,4v24
		C-847.5-711.8-849.3-710-851.5-710z M-857.8-715.8c-1.2,0-2.1,0.9-2.1,2.1c0,1.2,0.9,2.1,2.1,2.1c1.2,0,2.1-0.9,2.1-2.1
		C-855.7-714.9-856.7-715.8-857.8-715.8L-857.8-715.8z M-865.4-738.2v20.7h15.1v-20.7H-865.4z M-861.6-740.7v1.4h7.5v-1.4H-861.6z"
		/>
</g>
</svg>
