<?xml version="1.0" encoding="utf-8"?>
<!-- Generator: Adobe Illustrator 27.1.1, SVG Export Plug-In . SVG Version: 6.00 Build 0)  -->
<svg version="1.1" id="Layer_1" xmlns="http://www.w3.org/2000/svg" xmlns:xlink="http://www.w3.org/1999/xlink" x="0px" y="0px"
	 viewBox="0 0 1530 249" style="enable-background:new 0 0 1530 249;" xml:space="preserve">
<style type="text/css">
	.st0{fill:#231F20;}
	.st1{fill:#0087CD;}
	.st2{fill:#00704A;}
	.st3{fill:#9E1C33;}
</style>
<g>
	<g>
		
			<rect x="399.3" y="112.6" transform="matrix(-1.836970e-16 1 -1 -1.836970e-16 621.2947 -206.3228)" class="st0" width="29" height="189.8"/>
		<g>
			<g>
				<rect x="398.5" y="56.2" class="st1" width="30.6" height="115"/>
				<rect x="450.9" y="56.2" class="st2" width="30.6" height="115"/>
				<rect x="346.1" y="56.2" class="st3" width="30.6" height="115"/>
			</g>
			
				<rect x="399.3" y="-75" transform="matrix(-1.836970e-16 1 -1 -1.836970e-16 433.7022 -393.9153)" class="st0" width="29" height="189.8"/>
		</g>
	</g>
	<g>
		<path class="st0" d="M661.3,5v54.9c0,24.6-13.5,38.8-37.3,38.8c-23.8,0-37.4-14.1-37.4-38.8V5h18.1v54.9
			c0,14.6,6.4,21.9,19.3,21.9c12.7,0,19.2-7.4,19.2-21.9V5H661.3z"/>
		<path class="st0" d="M728.7,53.7v43.2h-17.2V57.4c0-8-3.2-12-9.5-12c-7,0-11.8,5.8-11.8,16.3v35.2h-16.9V30.3h14.6l1.3,8.7
			c3.5-6.7,9.6-10.1,18-10.1C721.2,28.9,728.7,38.3,728.7,53.7z"/>
		<path class="st0" d="M759.5,10.7c0,5.8-4.6,10.1-10.4,10.1c-5.8,0-10.4-4.3-10.4-10.1c0-5.6,4.6-10.1,10.4-10.1
			C754.8,0.6,759.5,5.1,759.5,10.7z M757.7,30.3v66.6h-17.1V30.3H757.7z"/>
		<path class="st0" d="M831,30.3l-24.2,66.6h-17.3l-24-66.6h18.4l13,40.9l1.3,5.8l1.3-5.8l13-40.9H831z"/>
		<path class="st0" d="M899,63.5v5.3h-46.4c0.5,8.9,6.7,15,16,15c7,0,11.4-2.6,13.4-7.8h16.6c-4.2,14.3-14.6,22.3-30.5,22.3
			c-9.9,0-17.9-3.2-24-9.5c-6-6.4-9.1-14.8-9.1-25.2c0-10.1,3-18.5,9.2-25c6.2-6.6,14.1-9.9,23.9-9.9C886.5,28.9,899,40.8,899,63.5z
			 M881.8,57c-0.1-8.4-5.6-13.9-14.1-13.9c-8.4,0-14.1,5.6-15,13.9H881.8z"/>
		<path class="st0" d="M943.9,46.7c-5.4,0-9.9,1.3-13.3,3.9c-3.3,2.6-5.1,6.7-5.4,12.3v33.9h-17.1V30.3h14.7l1.6,10.6
			c2.5-6.7,8.9-11.3,19.4-11.3V46.7z"/>
		<path class="st0" d="M1002,49.9h-16.9c-0.1-5.1-2.8-7.6-7.6-7.6c-4.7,0-7.4,2.5-7.4,6.6c0,4.2,2.6,6,11.7,7.6
			c15.8,2.6,21.7,9.1,21.7,20.2c0,14.3-10.9,21.7-25.7,21.7c-16.2,0-25.6-8.4-26-21.7h16.8c0.1,5.4,3.4,8.1,9.6,8.1
			c5.3,0,8.3-2.2,8.3-6.3c0-4.3-2.6-6.6-12.1-8.3c-14.6-2.5-21.3-8.8-21.3-19.7c0-6.2,2.1-11.3,6.4-15.4c4.3-4.2,10.4-6.3,18.1-6.3
			C991.6,28.9,1001.5,37.3,1002,49.9z"/>
		<path class="st0" d="M1033.3,10.7c0,5.8-4.6,10.1-10.4,10.1s-10.4-4.3-10.4-10.1c0-5.6,4.6-10.1,10.4-10.1
			C1028.5,0.6,1033.3,5.1,1033.3,10.7z M1031.4,30.3v66.6h-17.1V30.3H1031.4z"/>
		<path class="st0" d="M1068.2,14.2l-0.1,16.2h15.2v15.5h-15.4l-0.3,26.9c0,7,2.2,9.6,8.7,9.6c2.5,0,4.7-0.3,7-0.9v15
			c-2.5,0.9-6.2,1.4-10.8,1.4c-14.8,0-22.1-6.3-21.9-21l0.3-31h-10.9V30.3h10.9l0.1-16.2H1068.2z"/>
		<path class="st0" d="M1154.5,30.3l-34.3,94.8h-17.7l10.1-29l-23.6-65.8h18.4l13,40.9l1.3,5.8l1.3-5.8l13-40.9H1154.5z"/>
		<path class="st0" d="M1243.7,38.6c6.7,6.4,10,14.7,10,25s-3.3,18.7-10,25.1c-6.6,6.4-15,9.7-25.1,9.7c-10.1,0-18.4-3.3-25-9.7
			c-6.6-6.4-9.9-14.8-9.9-25.1s3.3-18.5,9.9-25c6.6-6.4,14.8-9.7,25-9.7C1228.7,28.9,1237.1,32.1,1243.7,38.6z M1206.2,49.9
			c-3.3,3.5-4.9,8.1-4.9,13.7s1.6,10.1,4.9,13.8c3.3,3.5,7.4,5.4,12.5,5.4c10.1,0,17.2-8.1,17.2-19.2c0-11.2-6.8-19.2-17.2-19.2
			C1213.6,44.4,1209.5,46.2,1206.2,49.9z"/>
		<path class="st0" d="M1300.8,0.8V16c-2.2-0.9-4.6-1.4-6.8-1.4c-5.9,0-8.8,3-8.8,9.2v6.6h15.2v15.5h-15.2v51.1H1268V45.8h-10.5
			V30.3h10.5v-7c0-15.6,8.4-23.8,24-23.8C1295-0.4,1298,0,1300.8,0.8z"/>
		<path class="st0" d="M635.8,128.3l35.6,92h-19.6l-7.6-20.4h-36.6l-7.6,20.4h-19.6l35.6-92H635.8z M625.8,150.3l-1.7,5.1
			l-10.9,28.8h25.2l-10.9-28.8L625.8,150.3z"/>
		<path class="st0" d="M699.6,124.4v95.9h-17.1v-95.9H699.6z"/>
		<path class="st0" d="M766.4,176.6v43.7h-14.6l-1.1-8.1c-4.2,6.4-10.5,9.6-19,9.6c-12.1,0-20.2-7.5-20.2-19.2
			c0-12.2,7.6-17.9,20.6-20l17.2-3.2v-2.5c0-6.7-3.2-10.1-9.3-10.1c-5.8,0-10,3.5-10,8.8h-16.6c0.9-13.8,11.2-23.4,26.5-23.4
			C756.2,152.2,766.4,160.7,766.4,176.6z M749.3,190.9l-13.3,2.8c-5,1.2-7.5,3.7-7.5,7.5c0,4.1,2.9,6.6,7.8,6.6c4.6,0,8.1-2,10.6-6
			c1.6-2.5,2.4-5.4,2.4-8.8V190.9z"/>
		<path class="st0" d="M794.7,124.4v36.5c4.3-5.8,11-8.7,20.1-8.7c8.9,0,16.3,3.3,22.2,10c5.9,6.7,8.8,14.8,8.8,24.7
			c0,9.9-3,18.1-8.9,24.8c-5.9,6.7-13.3,10-22.1,10c-9.3,0-16.4-3.4-21.1-10.4l-1.3,8.9h-14.6v-95.9H794.7z M799.6,173.3
			c-3.3,3.3-5,7.6-5.1,13.3v0.8c0,5.6,1.7,10.2,5,13.5c3.3,3.3,7.2,4.9,11.8,4.9c9.6,0,16.8-7.6,16.8-18.8c0-11-7.4-18.7-16.8-18.7
			C806.8,168.3,802.9,170,799.6,173.3z"/>
		<path class="st0" d="M907.7,176.6v43.7h-14.6l-1.1-8.1c-4.2,6.4-10.5,9.6-19,9.6c-12.1,0-20.2-7.5-20.2-19.2
			c0-12.2,7.6-17.9,20.6-20l17.2-3.2v-2.5c0-6.7-3.2-10.1-9.3-10.1c-5.8,0-10,3.5-10,8.8h-16.6c0.9-13.8,11.2-23.4,26.5-23.4
			C897.6,152.2,907.7,160.7,907.7,176.6z M890.6,190.9l-13.3,2.8c-5,1.2-7.5,3.7-7.5,7.5c0,4.1,2.9,6.6,7.8,6.6c4.6,0,8.1-2,10.6-6
			c1.6-2.5,2.4-5.4,2.4-8.8V190.9z"/>
		<path class="st0" d="M1012.2,177.1v43.2h-17.1v-39.5c0-8-3.2-12-9.3-12c-6.7,0-11.6,5.4-11.7,15.5v36h-17.1v-39.5
			c0-8-3.2-12-9.3-12c-6.8,0-11.7,5.6-11.7,16.3v35.2h-16.9v-66.6h14.6l1.3,8.7c3.5-6.7,9.5-10.1,17.7-10.1c9.3,0,15.8,3.9,19,11.7
			c3.3-6.8,10.2-11.7,19.2-11.7C1004.8,152.2,1012.2,161.7,1012.2,177.1z"/>
		<path class="st0" d="M1077.8,176.6v43.7h-14.6l-1.1-8.1c-4.2,6.4-10.5,9.6-19,9.6c-12.1,0-20.2-7.5-20.2-19.2
			c0-12.2,7.6-17.9,20.6-20l17.2-3.2v-2.5c0-6.7-3.2-10.1-9.3-10.1c-5.8,0-10,3.5-10,8.8h-16.6c0.9-13.8,11.2-23.4,26.5-23.4
			C1067.7,152.2,1077.8,160.7,1077.8,176.6z M1060.7,190.9l-13.3,2.8c-5,1.2-7.5,3.7-7.5,7.5c0,4.1,2.9,6.6,7.8,6.6
			c4.6,0,8.1-2,10.6-6c1.6-2.5,2.4-5.4,2.4-8.8V190.9z"/>
		<path class="st0" d="M1181.4,154.1h-18.3c-0.1-7.2-4.7-11.4-11.2-11.4c-6.4,0-10.4,3.5-10.4,9.9c0,3.3,1.2,5.6,3.4,7.4
			s6.6,3.5,12.7,5.8c19.3,6.4,26.5,14.4,26.5,28.5c0,8.7-2.9,15.5-8.7,20.5c-5.6,4.9-13,7.4-21.9,7.4c-20.5,0-31.9-11.8-32.4-29.8
			h18.3c0.4,9.3,5.3,13.9,14.4,13.9c7.5,0,12.1-4.2,12.1-10.4c0-6.2-4.6-9.7-16.3-13.5c-17.9-5.8-26.4-13.4-26.4-28.1
			c0-8.1,2.6-14.7,7.8-19.8c5.3-5.1,12.3-7.6,21.3-7.6C1169.8,126.6,1180.7,136.2,1181.4,154.1z"/>
		<path class="st0" d="M1255.4,153.7l-34.3,94.8h-17.7l10.1-29l-23.6-65.8h18.4l13,40.9l1.3,5.8l1.3-5.8l13-40.9H1255.4z"/>
		<path class="st0" d="M1309.1,173.3h-16.9c-0.1-5.1-2.8-7.6-7.6-7.6c-4.7,0-7.4,2.5-7.4,6.6c0,4.2,2.6,6,11.7,7.6
			c15.8,2.6,21.7,9.1,21.7,20.2c0,14.3-10.9,21.7-25.8,21.7c-16.2,0-25.6-8.4-26-21.7h16.8c0.1,5.4,3.4,8.1,9.6,8.1
			c5.3,0,8.3-2.2,8.3-6.3c0-4.3-2.6-6.6-12.1-8.3c-14.6-2.5-21.3-8.8-21.3-19.7c0-6.2,2.1-11.3,6.4-15.4c4.3-4.2,10.4-6.3,18.1-6.3
			C1298.7,152.2,1308.5,160.7,1309.1,173.3z"/>
		<path class="st0" d="M1342.4,137.5l-0.1,16.2h15.2v15.5h-15.4l-0.3,26.9c0,7,2.2,9.6,8.7,9.6c2.5,0,4.7-0.3,7-0.9v15
			c-2.5,0.9-6.2,1.4-10.8,1.4c-14.8,0-22.1-6.3-21.9-21l0.3-31h-10.9v-15.5h10.9l0.1-16.2H1342.4z"/>
		<path class="st0" d="M1427.7,186.9v5.3h-46.4c0.5,8.9,6.7,15,16,15c7,0,11.4-2.6,13.4-7.8h16.6c-4.2,14.3-14.6,22.3-30.5,22.3
			c-9.9,0-17.9-3.2-24-9.5c-6-6.4-9.1-14.8-9.1-25.2c0-10.1,3-18.5,9.2-25c6.2-6.6,14.1-9.9,23.9-9.9
			C1415.2,152.2,1427.7,164.2,1427.7,186.9z M1410.5,180.4c-0.1-8.4-5.7-13.9-14.1-13.9s-14.1,5.6-15,13.9H1410.5z"/>
		<path class="st0" d="M1529.7,177.1v43.2h-17.1v-39.5c0-8-3.2-12-9.3-12c-6.7,0-11.6,5.4-11.7,15.5v36h-17.1v-39.5
			c0-8-3.2-12-9.3-12c-6.8,0-11.7,5.6-11.7,16.3v35.2h-16.9v-66.6h14.6l1.3,8.7c3.5-6.7,9.5-10.1,17.7-10.1c9.3,0,15.8,3.9,19,11.7
			c3.3-6.8,10.2-11.7,19.2-11.7C1522.2,152.2,1529.7,161.7,1529.7,177.1z"/>
	</g>
	<g>
		<g>
			<path class="st0" d="M111.6,53.7c0,11.7-6.7,18.4-17.8,18.4h-9.5v25.2h-7.5V36.4h16.8C105,36.4,111.6,43,111.6,53.7z M103.5,53.7
				c0-7.4-3.9-11.4-10.6-11.4h-8.7V66H93C99.6,66,103.5,61.7,103.5,53.7z"/>
			<path class="st0" d="M146,79.6h-19l-4.9,17.7h-7.6l17.8-60.9h8.3l17.9,60.9h-7.6L146,79.6z M144.3,73.4L138,50.8
				c-0.5-2.2-0.9-4.5-1.4-6.9h-0.2c-0.4,2.5-0.9,4.7-1.4,6.9l-6.3,22.6H144.3z"/>
			<path class="st0" d="M188,71.4h-9.3v25.9h-7.5V36.4h17.3c13.4,0,17.8,7.3,17.8,17.4c0,7.8-3.3,14.1-10.7,16.3l12.4,27.2h-8.4
				L188,71.4z M178.7,65.5h9.3c7.5,0,10.3-4.6,10.3-11.7c0-7.4-2.8-11.4-10.4-11.4h-9.3V65.5z"/>
			<path class="st0" d="M252.2,42.9h-15.6v54.4h-7.5V42.9h-15.7v-6.5h38.8V42.9z"/>
			<path class="st0" d="M-0.3,161.1c0-22,7.7-32,22-32s22,10,22,32s-7.7,32-22,32S-0.3,183-0.3,161.1z M35.7,161.1
				c0-18-5-25.6-14-25.6s-14,7.5-14,25.6c0,18,5,25.6,14,25.6S35.7,179.1,35.7,161.1z"/>
			<path class="st0" d="M66.1,137.1v20h21.8v6.3H66.1v28.1h-7.5v-60.9h30.7v6.4H66.1z"/>
			<path class="st0" d="M151.7,137.2h-15.6v54.4h-7.5v-54.4h-15.7v-6.5h38.8V137.2z"/>
			<path class="st0" d="M203.7,191.6h-7.5v-28.1h-23.3v28.1h-7.5v-60.9h7.5v26.6h23.3v-26.6h7.5V191.6z"/>
			<path class="st0" d="M253.3,185.2v6.4H222v-60.9h30.7v6.4h-23.2v20h21.8v6.3h-21.8v21.7H253.3z"/>
		</g>
	</g>
</g>
</svg>
