<?xml version="1.0" encoding="utf-8"?>
<!-- Generator: Adobe Illustrator 28.1.0, SVG Export Plug-In . SVG Version: 6.00 Build 0)  -->
<svg version="1.1" id="Layer_1" xmlns="http://www.w3.org/2000/svg" xmlns:xlink="http://www.w3.org/1999/xlink" x="0px" y="0px"
	 viewBox="0 0 50 56.1" style="enable-background:new 0 0 50 56.1;" xml:space="preserve">
<style type="text/css">
	.st0{fill:#231F20;}
	.st1{fill:#0087CD;}
	.st2{fill:#FFFFFF;}
	.st3{fill:#474C55;}
	.st4{fill:#FCD722;}
</style>
<g id="Layer_1_00000160179006321143945190000009416329469500388511_">
	<g>
		<polygon class="st0" points="1.5,13.9 1,19.7 3.9,21.5 6,17.7 		"/>
		<polygon class="st0" points="48.4,13.7 48.9,19.5 45.9,21.3 43.7,17.5 		"/>
		<path class="st1" d="M43.4,44.7c-3.6,4-8.3,6.5-13.8,7.4h-0.1v1.2c0,0.5-0.4,0.9-0.9,0.9h-7.3c-0.5,0-0.9-0.4-0.9-0.9v-1.1l0,0
			c-4-0.7-7.8-2.3-11.2-5C5,44,2.4,39.8,1.2,34.9C0.3,31.2,0.6,27.6,1.7,24C3,19.6,5,15.4,7,11.2c0.2-0.4,0.4-0.8,0.5-1.1
			C7.7,9.7,7.9,9.3,8,9c0.1-0.2,0.2-0.5,0.3-0.7C8.6,7.8,8.7,7.4,8.5,7c-0.3-0.8-1-1.3-1.9-1.3H3.5C3,5.7,2.8,5.5,2.8,5.3V0.8
			c0-0.2,0.2-0.4,0.4-0.4h9.6c0.2,0,0.3,0.2,0.4,0.3V5c0,1.6-0.5,3.2-1,4.7C10.9,14,10,18.2,9.4,22.6c-0.3,2.5-0.6,5.1-0.5,7.6
			c0,2,0.4,3.9,1.2,5.7c4.3,9.5,18.3,11.7,26.2,4.6c2.2-2,3.8-4.3,4.4-7.1c0.3-1.2,0.4-2.5,0.4-3.8c-0.1-7.7-1.8-15.1-4-22.5
			c-0.2-0.6-0.2-1.1-0.2-1.7V0.8c0-0.2,0.2-0.4,0.4-0.4h9.6c0.2,0,0.3,0.2,0.4,0.3v4.5c0,0.2-0.2,0.3-0.4,0.3h-3.6
			c-0.8,0-1.6,0.5-1.8,1.3c-0.2,0.5-0.1,0.9,0.1,1.3c0,0,0,0.1,0.1,0.1l0,0c0,0,0,0,0,0.1v0.1c0,0.1,0.1,0.1,0.1,0.2
			C41.9,8.7,41.9,8.9,42,9c0.1,0.3,0.3,0.5,0.4,0.8c0.1,0.3,0.3,0.5,0.4,0.8c0.1,0.3,0.3,0.5,0.4,0.8c0.1,0.3,0.3,0.5,0.4,0.8
			c0.1,0.3,0.3,0.5,0.4,0.8c0.1,0.3,0.3,0.5,0.4,0.8c0.1,0.3,0.2,0.5,0.4,0.8l0,0C46.5,18.3,48.1,22,49,26
			C50.2,33.1,48.4,39.3,43.4,44.7L43.4,44.7z"/>
		<path class="st2" d="M28.6,54.6h-7.3c-0.7,0-1.2-0.6-1.2-1.2v-0.9c-4-0.7-7.7-2.4-11.1-5C4.8,44.3,2,40.1,0.8,35
			C0,31.5,0.2,27.9,1.4,23.9c1.3-4.3,3.2-8.4,5.3-12.9l1.2-2.4C8,8.4,8,8.3,8.1,8.1c0.1-0.4,0.2-0.7,0.1-1C8,6.4,7.3,6,6.6,6H3.5
			c-0.9,0-1-0.5-1-0.7V0.8c0-0.4,0.3-0.7,0.7-0.7h9.6c0.3,0,0.6,0.3,0.7,0.6V5c0,1.4-0.4,2.7-0.8,4c-0.1,0.3-0.2,0.5-0.2,0.8
			c-1.3,4.5-2.2,8.7-2.7,12.8c-0.3,2.3-0.6,5-0.5,7.6c0,2,0.4,3.9,1.2,5.6C12.3,40,16.2,43,21.2,44c5.4,1.1,11-0.2,14.8-3.7
			c2.3-2,3.7-4.4,4.3-7c0.3-1.2,0.4-2.5,0.4-3.7c-0.1-6.6-1.4-13.8-4-22.4c-0.2-0.7-0.2-1.3-0.2-1.8V0.8c0-0.4,0.3-0.7,0.7-0.7h9.6
			c0.3,0,0.6,0.3,0.7,0.6v4.6C47.4,5.7,47.1,6,46.8,6h-3.6c-0.7,0-1.3,0.4-1.5,1c-0.1,0.4-0.1,0.7,0.1,1.1l0.1,0.2l0,0l0,0l0,0
			l-0.2,0.2L42,8.4l2.9,6.2c1.7,3.6,3.3,7.4,4.2,11.5c1.5,7-0.3,13.3-5.4,18.9l0,0c-3.7,4-8.3,6.5-13.9,7.5v0.9
			C29.8,54.1,29.3,54.6,28.6,54.6z M3.1,5.3c0,0,0.1,0,0.3,0h3.2c1,0,1.9,0.6,2.2,1.5C9,7.5,8.9,7.9,8.7,8.3c0,0.2-0.1,0.4-0.2,0.6
			l-1.1,2.4c-2.1,4.5-4,8.5-5.3,12.8C0.9,28,0.7,31.5,1.5,34.8c1.2,4.9,3.8,9,7.9,12.1c3.4,2.6,7.1,4.2,11.1,4.9h0.3v0.3v1.1
			c0,0.3,0.3,0.6,0.6,0.6h7.3c0.3,0,0.6-0.3,0.6-0.6v-1.5l0.4-0.1c5.5-0.9,10.1-3.4,13.7-7.3l0,0c4.9-5.4,6.7-11.5,5.2-18.3
			c-0.9-4-2.5-7.8-4.1-11.3l-3-6.3c0,0,0-0.1-0.1-0.1V8.2C41,8,40.8,7.5,41.1,6.8c0.3-0.9,1.2-1.5,2.2-1.5h3.6V0.8h-9.6v4.7
			c0,0.5,0,1.1,0.2,1.6c2.6,8.7,3.9,15.9,4,22.6c0,1.3-0.1,2.6-0.4,3.9c-0.6,2.7-2.1,5.2-4.5,7.3c-4,3.6-9.8,5-15.4,3.8
			c-5.2-1.1-9.3-4.2-11.3-8.6c-0.8-1.8-1.2-3.7-1.3-5.9c0-2.7,0.3-5.4,0.6-7.7c0.5-4.2,1.4-8.4,2.8-12.9c0.1-0.3,0.2-0.5,0.2-0.8
			C12.6,7.5,13,6.3,12.9,5V0.8l0,0H3.2L3.1,5.3L3.1,5.3z"/>
		<path class="st3" d="M48.5,12.9c-0.1-0.9-0.6-1.6-1.4-2c-5.3-2.7-13-4.4-22-4.4c-9.2,0-17,1.8-22.4,4.6c-0.8,0.4-1.3,1.2-1.3,2
			L1,19.6c5.3-3.2,14.1-5.3,24.1-5.3c9.8,0,18.5,2,23.8,5.1L48.5,12.9L48.5,12.9z"/>
		<path class="st2" d="M26,48.7c0,0.6-0.5,1-1,1c-0.6,0-1-0.5-1-1c0-0.6,0.5-1,1-1S26,48.1,26,48.7L26,48.7z"/>
		<path class="st2" d="M38.6,44.4c0,0.6-0.5,1-1,1c-0.6,0-1-0.5-1-1c0-0.6,0.5-1,1-1S38.6,43.9,38.6,44.4L38.6,44.4z"/>
		<path class="st2" d="M45.7,33.8c0,0.6-0.5,1-1,1c-0.6,0-1-0.5-1-1c0-0.6,0.5-1,1-1C45.3,32.8,45.7,33.3,45.7,33.8L45.7,33.8z"/>
		<path class="st2" d="M44.7,20.6c0,0.6-0.5,1-1,1s-1-0.5-1-1c0-0.6,0.5-1,1-1S44.7,20.1,44.7,20.6L44.7,20.6z"/>
		<path class="st2" d="M11.4,44.4c0,0.6,0.5,1,1,1c0.6,0,1-0.5,1-1c0-0.6-0.5-1-1-1C11.8,43.4,11.4,43.9,11.4,44.4L11.4,44.4z"/>
		<path class="st2" d="M4.2,33.8c0,0.6,0.5,1,1,1c0.6,0,1-0.5,1-1c0-0.6-0.5-1-1-1C4.6,32.8,4.2,33.3,4.2,33.8L4.2,33.8z"/>
		<path class="st2" d="M5.2,20.6c0,0.6,0.5,1,1,1c0.6,0,1-0.5,1-1c0-0.6-0.5-1-1-1S5.2,20.1,5.2,20.6L5.2,20.6z"/>
		<path class="st0" d="M24.3,48.7c0-0.5,0.4-0.9,0.9-1c-0.1,0-0.1,0-0.2,0c-0.6,0-1,0.5-1,1c0,0.6,0.5,1,1,1c0.1,0,0.1,0,0.2,0
			C24.6,49.6,24.3,49.2,24.3,48.7L24.3,48.7z"/>
		<path class="st0" d="M11.7,44.4c0-0.5,0.4-0.9,0.9-1c-0.1,0-0.1,0-0.2,0c-0.6,0-1,0.5-1,1c0,0.6,0.5,1,1,1c0.1,0,0.1,0,0.2,0
			C12.1,45.4,11.7,44.9,11.7,44.4L11.7,44.4z"/>
		<path class="st0" d="M6.3,21.7c0.1,0,0.1,0,0.2,0c-0.5-0.1-0.9-0.5-0.9-1s0.4-0.9,0.9-1c-0.1,0-0.1,0-0.2,0c-0.6,0-1,0.5-1,1
			C5.2,21.2,5.7,21.7,6.3,21.7L6.3,21.7z"/>
		<path class="st0" d="M4.5,33.8c0-0.5,0.4-0.9,0.9-1c-0.1,0-0.1,0-0.2,0c-0.6,0-1,0.5-1,1c0,0.6,0.5,1,1,1c0.1,0,0.1,0,0.2,0
			C4.9,34.8,4.5,34.4,4.5,33.8L4.5,33.8z"/>
		<path class="st0" d="M36.8,44.4c0-0.5,0.4-0.9,0.9-1c-0.1,0-0.1,0-0.2,0c-0.6,0-1,0.5-1,1c0,0.6,0.5,1,1,1c0.1,0,0.1,0,0.2,0
			C37.2,45.4,36.8,44.9,36.8,44.4L36.8,44.4z"/>
		<path class="st0" d="M44,33.8c0-0.5,0.4-0.9,0.9-1c-0.1,0-0.1,0-0.2,0c-0.6,0-1,0.5-1,1c0,0.6,0.5,1,1,1c0.1,0,0.1,0,0.2,0
			C44.4,34.8,44,34.4,44,33.8L44,33.8z"/>
		<path class="st0" d="M43.8,21.7c-0.5-0.1-0.9-0.5-0.9-1s0.4-0.9,0.9-1c-0.1,0-0.1,0-0.2,0c-0.6,0-1,0.5-1,1c0,0.6,0.5,1,1,1
			C43.7,21.7,43.8,21.7,43.8,21.7L43.8,21.7z"/>
		<polygon class="st4" points="13.1,10 15.1,9.6 15.2,10 13.6,10.3 13.8,11.2 15.3,11 15.3,11.4 13.8,11.6 14,12.6 15.7,12.4 
			15.8,12.8 13.6,13.1 		"/>
		<path class="st4" d="M16.8,11.9c0.2,0.2,0.5,0.3,0.7,0.3c0.3,0,0.6-0.3,0.6-0.6c-0.1-0.7-1.6-0.1-1.7-1.3c0-0.4,0.2-0.9,1-1
			c0.3,0,0.7,0,1,0.3L18,9.9c-0.1-0.2-0.4-0.2-0.6-0.2c-0.5,0.1-0.6,0.4-0.6,0.6c0.1,0.8,1.6,0.1,1.7,1.3c0.1,0.6-0.4,1-1,1.1
			c-0.4,0-0.8,0-1.1-0.3L16.8,11.9L16.8,11.9z"/>
		<polygon class="st4" points="20.3,9.5 19.2,9.5 19.2,9.1 21.7,9 21.7,9.4 20.7,9.4 20.9,12.2 20.4,12.3 		"/>
		<path class="st4" d="M22.4,11.9c0-0.2,0.1-0.3,0.3-0.3c0.2,0,0.3,0.1,0.3,0.3s-0.1,0.3-0.3,0.3S22.4,12.1,22.4,11.9L22.4,11.9z"/>
		<polygon class="st4" points="26.7,9.4 26.1,9.9 25.9,9.6 26.8,8.9 27.1,8.9 27.1,12.1 26.6,12.1 		"/>
		<path class="st4" d="M29.7,11L29.7,11c-0.1,0-0.2,0.1-0.4,0c-0.5,0-1-0.4-0.9-1.1c0-0.7,0.6-1,1.2-1s1.1,0.5,1,1.1
			c0,0.4-0.2,0.6-0.4,0.9l-0.9,1.2h-0.5L29.7,11L29.7,11z M29.5,9.4c-0.4,0-0.7,0.2-0.7,0.6c0,0.4,0.2,0.7,0.6,0.7s0.7-0.2,0.7-0.6
			C30.2,9.7,29.9,9.4,29.5,9.4L29.5,9.4z"/>
		<path class="st4" d="M32.2,10.5L32.2,10.5c0.1,0,0.2,0,0.4,0c0.5,0.1,1,0.4,0.9,1.1c-0.1,0.7-0.6,1-1.2,1c-0.6-0.1-1.1-0.5-1-1.1
			c0-0.4,0.2-0.6,0.4-0.9l0.9-1.2l0.5,0.1L32.2,10.5L32.2,10.5z M32.2,12.2c0.4,0,0.7-0.2,0.7-0.6c0-0.4-0.2-0.7-0.6-0.7
			c-0.4,0-0.7,0.2-0.7,0.6C31.6,11.8,31.9,12.1,32.2,12.2L32.2,12.2z"/>
		<path class="st4" d="M35.5,11.7L35.5,11.7c-0.1,0-0.2,0-0.4,0c-0.5-0.1-0.9-0.5-0.8-1.2c0.1-0.7,0.7-1,1.3-0.9s1,0.6,0.9,1.2
			c-0.1,0.4-0.2,0.6-0.5,0.9l-1,1.1l-0.5-0.1L35.5,11.7L35.5,11.7z M35.5,10c-0.4-0.1-0.7,0.2-0.8,0.6c-0.1,0.4,0.2,0.7,0.6,0.8
			c0.4,0.1,0.7-0.2,0.8-0.6C36.1,10.4,35.9,10.1,35.5,10L35.5,10z"/>
		<path class="st2" d="M36.9,27.9c-0.5-1-1.3-1.8-2.2-2.4s-2-0.9-3.1-0.9c-0.9,0-1.8,0.2-2.7,0.6c-0.6,0.3-1.2,0.6-1.7,1.1l0.5-4.9
			h8.2v-1.1h-9.2l-0.8,8H27l0.1-0.1c0.6-0.8,1.3-1.4,2-1.8c0.8-0.4,1.6-0.6,2.4-0.6c0.9,0,1.7,0.2,2.5,0.7s1.4,1.2,1.8,2
			c0.5,0.8,0.7,1.8,0.7,2.8c0,1-0.2,1.9-0.7,2.7s-1.2,1.5-2,2s-1.7,0.7-2.7,0.7c-1.2,0-2.3-0.4-3.2-1.1c-1-0.7-1.6-1.7-2-2.9
			l-0.1-0.2l0,0c-0.1,0.6-0.3,1.1-0.6,1.7c0.2,0.4,0.5,0.8,0.8,1.2c0.6,0.7,1.4,1.3,2.3,1.8c0.9,0.4,1.8,0.6,2.8,0.6
			c1.2,0,2.3-0.3,3.3-0.9c1-0.6,1.8-1.4,2.4-2.4c0.6-1,0.9-2.1,0.9-3.3C37.8,30,37.5,28.9,36.9,27.9L36.9,27.9z"/>
		<path class="st2" d="M24.4,27.9c-0.5-1-1.3-1.8-2.2-2.4c-0.9-0.6-2-0.9-3.1-0.9c-0.9,0-1.8,0.2-2.7,0.6c-0.6,0.3-1.2,0.6-1.7,1.1
			l0.5-4.9h8.2v-1.1h-9.2l-0.8,8h1.2l0.1-0.1c0.6-0.8,1.3-1.4,2-1.8c0.8-0.4,1.6-0.6,2.4-0.6c0.9,0,1.7,0.2,2.5,0.7s1.4,1.2,1.8,2
			c0.5,0.8,0.7,1.8,0.7,2.8c0,1-0.2,1.9-0.7,2.7s-1.2,1.5-2,2s-1.7,0.7-2.7,0.7c-1.2,0-2.3-0.4-3.2-1.1c-1-0.7-1.6-1.7-2-2.9
			l-0.1-0.2h-1.2l0.1,0.3c0.2,0.9,0.6,1.8,1.3,2.5c0.6,0.7,1.4,1.3,2.3,1.8c0.9,0.4,1.8,0.6,2.8,0.6c1.2,0,2.3-0.3,3.3-0.9
			c1-0.6,1.8-1.4,2.4-2.4c0.1-0.1,0.1-0.2,0.2-0.3c0.3-0.5,0.5-1.1,0.6-1.7c0.1-0.4,0.1-0.9,0.1-1.4C25.2,30,24.9,28.9,24.4,27.9
			L24.4,27.9z"/>
	</g>
</g>
<g id="Layer_2_00000170996539885342148030000008969138045207432090_">
</g>
</svg>
